<?xml version="1.0" standalone="no"?>
<!DOCTYPE svg PUBLIC "-//W3C//DTD SVG 1.1//EN" "http://www.w3.org/Graphics/SVG/1.1/DTD/svg11.dtd" >
<svg xmlns="http://www.w3.org/2000/svg">
<metadata>Generated by IcoMoon</metadata>
<defs>
<font id="icomoon" horiz-adv-x="1024">
<font-face units-per-em="1024" ascent="960" descent="-64" />
<missing-glyph horiz-adv-x="1024" />
<glyph unicode="&#x20;" horiz-adv-x="512" d="" />
<glyph unicode="&#xe900;" glyph-name="cross" d="M734.618 212.531c-24.013-24.013-62.925-24.013-86.886 0l-135.731 155.136-135.731-155.085c-24.013-24.013-62.925-24.013-86.886 0-24.013 24.013-24.013 62.925 0 86.886l141.21 161.28-141.261 161.382c-24.013 24.013-24.013 62.874 0 86.886s62.874 24.013 86.886 0l135.782-155.187 135.731 155.187c24.013 24.013 62.874 24.013 86.886 0s24.013-62.925 0-86.886l-141.21-161.382 141.21-161.28c24.013-24.013 24.013-62.925 0-86.938z" />
<glyph unicode="&#xe901;" glyph-name="event" d="M783.032 760.893c-0.041 16.159-12.8 29.123-28.447 29.020l-487.301-3.973c-15.647-0.123-28.283-13.312-28.221-29.471l2.13-620.052c0.061-16.179 12.78-29.164 28.426-29.020l487.322 3.973c15.647 0.123 28.283 13.312 28.221 29.471l-2.13 620.052zM558.51 718.070c2.826 16.876 18.33 28.283 34.632 25.436s27.218-18.801 24.392-35.697c-2.847-16.896-18.35-28.283-34.632-25.457-16.302 2.826-27.197 18.801-24.392 35.717zM406.753 718.664c2.826 16.896 18.33 28.283 34.611 25.457 16.302-2.826 27.238-18.821 24.412-35.717s-18.33-28.283-34.632-25.457c-16.282 2.847-27.197 18.842-24.392 35.717zM488.346 262.779c-17.224-14.049-41.923-21.299-74.117-21.791-26.972-0.43-50.954 3.85-71.885 12.8l-0.43 46.264c9.667-4.895 20.316-8.847 31.908-11.817 11.592-2.99 23.060-4.383 34.386-4.219 17.347 0.266 30.126 3.502 38.339 9.748 8.212 6.226 12.268 16.077 12.145 29.553-0.102 12.083-4.956 20.562-14.5 25.457-9.585 4.895-24.781 7.209-45.65 6.881l-18.883-0.307-0.389 41.697 19.21 0.287c19.272 0.307 33.321 3.133 42.189 8.479 8.847 5.386 13.23 14.377 13.087 27.034-0.164 19.497-12.042 29.041-35.635 28.672-8.151-0.123-16.445-1.659-24.863-4.608-8.417-2.929-17.756-7.946-27.996-15.032l-24.658 37.11c22.528 17.244 49.459 26.092 80.855 26.583 25.743 0.41 46.1-4.69 61.112-15.258s22.61-25.457 22.774-44.687c0.164-16.077-4.424-29.819-13.742-41.226-9.298-11.407-22.446-19.333-39.404-23.818v-1.044c20.091-2.273 35.348-8.356 45.752-18.227 10.383-9.892 15.688-23.327 15.831-40.325 0.266-24.74-8.212-44.155-25.436-58.204zM619.254 247.624l-1.372 148.849 0.307 24.453 0.594 26.767c-8.643-9.155-14.643-15.176-18.043-18.022l-28.344-24.207-25.62 32.358 79.483 67.174 43.192 0.655 2.355-257.188-52.552-0.84z" />
<glyph unicode="&#xe902;" glyph-name="arrow-left2" d="M402.746 82.746l-320 320c-24.994 24.992-24.994 65.516 0 90.51l320 320c24.994 24.992 65.516 24.992 90.51 0 24.994-24.994 24.994-65.516 0-90.51l-210.746-210.746h613.49c35.346 0 64-28.654 64-64s-28.654-64-64-64h-613.49l210.746-210.746c12.496-12.496 18.744-28.876 18.744-45.254s-6.248-32.758-18.744-45.254c-24.994-24.994-65.516-24.994-90.51 0z" />
<glyph unicode="&#xe903;" glyph-name="phone" d="M819.835 265.134c-7.496 23.47-45.916 44.81-68.301 59.74-22.405 14.93-66.13 51.2-93.86 51.2-27.75 0-81.101-38.4-81.101-38.4s-56.525 42.66-102.38 89.6c-45.855 46.94-72.54 85.32-72.54 85.32s40.55 71.475 38.42 89.6-33.075 62.935-51.2 89.6c-18.145 26.665-39.465 64-68.26 64s-108.81-77.865-110.94-98.14c-2.13-20.255-1.413-55.46 34.14-132.26 35.533-76.8 219.73-269.865 294.4-315.74 74.65-45.875 128.020-74.67 174.92-68.28 46.92 6.451 114.156 100.311 106.701 123.761z" />
<glyph unicode="&#xe904;" horiz-adv-x="101" d="M100.721-13.639c0-27.813-22.547-50.361-50.361-50.361s-50.361 22.547-50.361 50.361c0 27.813 22.547 50.361 50.361 50.361s50.361-22.547 50.361-50.361z" />
<glyph unicode="&#xe905;" horiz-adv-x="101" d="M20.985-8.918c-1.504 0.453-2.256 1.109-2.256 1.971 0 0.575 0.164 0.955 0.493 1.138s0.799 0.278 1.415 0.278c0.094 0 0.194-0.003 0.297-0.010 0.103-0.009 0.229-0.010 0.379-0.010h0.696c0.301 0 0.588-0.016 0.862-0.040 0.275-0.030 0.643-0.091 1.107-0.185 0.465-0.096 1.084-0.243 1.855-0.441 0.773-0.198 1.822-0.47 3.148-0.811l2.256 6.281c-3.062 1.479-6.37 2.219-9.925 2.219-7.491 0-11.237-3.121-11.237-9.362 0-1.095 0.17-2.097 0.512-3.008 0.341-0.911 0.817-1.724 1.425-2.441 0.609-0.719 1.329-1.339 2.163-1.859s1.736-0.93 2.707-1.233c0.698-0.247 1.45-0.474 2.256-0.687s1.548-0.449 2.224-0.708 1.24-0.554 1.691-0.883c0.451-0.329 0.677-0.733 0.677-1.21 0-0.399-0.1-0.712-0.297-0.944-0.198-0.234-0.462-0.409-0.79-0.535-0.329-0.122-0.708-0.201-1.138-0.236s-0.878-0.051-1.343-0.051c-0.287 0-0.621 0.028-1.004 0.082s-0.787 0.119-1.21 0.196c-0.425 0.073-0.848 0.159-1.271 0.255-0.425 0.096-0.82 0.184-1.189 0.266l-3.072 0.762c-0.080-0.205-0.164-0.453-0.247-0.74-0.477-1.724-1.135-3.627-1.967-5.708 3.022-1.45 6.533-2.175 10.539-2.175 1.805 0 3.422 0.205 4.849 0.616 1.429 0.411 2.635 1.030 3.62 1.859s1.74 1.876 2.264 3.142 0.79 2.759 0.79 4.483c0 2.341-0.953 4.333-2.861 5.973-1.906 1.642-4.713 2.894-8.418 3.756zM61.526-2.842c-1.341 1.343-2.959 2.392-4.859 3.151-1.899 0.761-4.027 1.14-6.376 1.14-4.826 0-8.654-1.527-11.483-4.578-2.653-2.861-3.978-6.377-3.978-10.551 0-1.299 0.145-2.572 0.441-3.819 0.294-1.245 0.731-2.425 1.311-3.539 0.581-1.117 1.304-2.146 2.174-3.090 0.869-0.946 1.876-1.759 3.025-2.443s2.431-1.217 3.845-1.6c1.415-0.385 2.969-0.575 4.665-0.575 1.652 0 3.181 0.187 4.581 0.563 1.402 0.378 2.672 0.904 3.816 1.581 1.14 0.678 2.149 1.486 3.023 2.424 0.874 0.936 1.61 1.964 2.205 3.079s1.042 2.301 1.343 3.56 0.453 2.546 0.453 3.859c0 2.175-0.364 4.19-1.088 6.045s-1.761 3.452-3.099 4.793zM55.979-16.245c-0.226-0.89-0.581-1.694-1.067-2.413-0.484-0.719-1.107-1.306-1.864-1.766-0.761-0.458-1.679-0.687-2.758-0.687-0.93 0-1.771 0.191-2.522 0.574-0.752 0.383-1.392 0.908-1.918 1.57s-0.93 1.45-1.21 2.361-0.42 1.899-0.42 2.966c0 0.904 0.112 1.81 0.337 2.721s0.582 1.731 1.067 2.464c0.484 0.731 1.11 1.331 1.876 1.794 0.766 0.467 1.694 0.712 2.789 0.74 0.915-0.040 1.745-0.259 2.49-0.657 0.747-0.397 1.381-0.934 1.908-1.61 0.526-0.678 0.93-1.479 1.21-2.403 0.28-0.922 0.42-1.939 0.42-3.048-0.002-0.846-0.114-1.715-0.339-2.604zM87.781-12.674c-1.908 1.642-4.713 2.894-8.416 3.756-1.504 0.453-2.256 1.109-2.256 1.971 0 0.575 0.164 0.955 0.491 1.138s0.799 0.278 1.416 0.278c0.094 0 0.194-0.003 0.297-0.010 0.103-0.009 0.229-0.010 0.379-0.010h0.696c0.301 0 0.588-0.016 0.862-0.040 0.273-0.030 0.642-0.091 1.107-0.185s1.082-0.243 1.855-0.441c0.773-0.198 1.822-0.47 3.149-0.811l2.256 6.281c-3.064 1.479-6.372 2.219-9.925 2.219-7.491 0-11.238-3.121-11.238-9.362 0-1.095 0.173-2.097 0.514-3.008s0.817-1.724 1.423-2.441c0.609-0.719 1.331-1.339 2.163-1.859 0.834-0.521 1.736-0.93 2.707-1.233 0.698-0.247 1.45-0.474 2.256-0.687s1.549-0.449 2.224-0.708 1.24-0.554 1.693-0.883c0.451-0.329 0.677-0.733 0.677-1.21 0-0.399-0.1-0.712-0.297-0.944-0.198-0.234-0.462-0.409-0.79-0.535-0.329-0.122-0.706-0.201-1.137-0.236s-0.878-0.051-1.345-0.051c-0.287 0-0.621 0.028-1.004 0.082s-0.785 0.119-1.208 0.196c-0.425 0.073-0.848 0.159-1.273 0.255-0.423 0.096-0.82 0.184-1.189 0.266l-3.078 0.761c-0.082-0.205-0.164-0.453-0.247-0.74-0.477-1.724-1.133-3.627-1.969-5.708 3.023-1.45 6.535-2.175 10.541-2.175 1.803 0 3.42 0.205 4.847 0.616 1.429 0.411 2.637 1.030 3.62 1.859s1.74 1.876 2.266 3.142 0.789 2.759 0.789 4.483c0.003 2.343-0.95 4.333-2.857 5.975z" />
<glyph unicode="&#xe906;" glyph-name="facebook-official" horiz-adv-x="878" d="M829.143 877.714q20 0 34.286-14.286t14.286-34.286v-780.571q0-20-14.286-34.286t-34.286-14.286h-223.429v340h113.714l17.143 132.571h-130.857v84.571q0 32 13.429 48t52.286 16l69.714 0.571v118.286q-36 5.143-101.714 5.143-77.714 0-124.286-45.714t-46.571-129.143v-97.714h-114.286v-132.571h114.286v-340h-420q-20 0-34.286 14.286t-14.286 34.286v780.571q0 20 14.286 34.286t34.286 14.286h780.571z" />
<glyph unicode="&#xe907;" glyph-name="google-plus2" horiz-adv-x="951" d="M420 496q0-20.571 18.286-40.286t44.286-38.857 51.714-42 44-59.429 18.286-81.143q0-51.429-27.429-98.857-41.143-69.714-120.571-102.571t-170.286-32.857q-75.429 0-140.857 23.714t-98 78.571q-21.143 34.286-21.143 74.857 0 46.286 25.429 85.714t67.714 65.714q74.857 46.857 230.857 57.143-18.286 24-27.143 42.286t-8.857 41.714q0 20.571 12 48.571-26.286-2.286-38.857-2.286-84.571 0-142.571 55.143t-58 139.714q0 46.857 20.571 90.857t56.571 74.857q44 37.714 104.286 56t124.286 18.286h238.857l-78.857-50.286h-74.857q42.286-36 64-76t21.714-91.429q0-41.143-14-74t-33.714-53.143-39.714-37.143-34-35.143-14-37.714zM336.571 550.857q21.714 0 44.571 9.429t37.714 24.857q30.286 32.571 30.286 90.857 0 33.143-9.714 71.429t-27.714 74-48.286 59.143-66.857 23.429q-24 0-47.143-11.143t-37.429-30q-26.857-33.714-26.857-91.429 0-26.286 5.714-55.714t18-58.857 29.714-52.857 42.857-38.286 55.143-14.857zM337.714 52q33.143 0 63.714 7.429t56.571 22.286 41.714 41.714 15.714 62.286q0 14.286-4 28t-8.286 24-15.429 23.714-16.857 20-22 19.714-20.857 16.571-23.714 17.143-20.857 14.857q-9.143 1.143-27.429 1.143-30.286 0-60-4t-61.429-14.286-55.429-26.286-39.143-42.571-15.429-60.286q0-40 20-70.571t52.286-47.429 68-25.143 72.857-8.286zM800.571 552.571h121.714v-61.714h-121.714v-125.143h-60v125.143h-121.143v61.714h121.143v124h60v-124z" />
<glyph unicode="&#xe908;" horiz-adv-x="101" d="M100.721 171.016c0-27.813-22.547-50.361-50.361-50.361s-50.361 22.547-50.361 50.361c0 27.813 22.547 50.361 50.361 50.361s50.361-22.547 50.361-50.361z" />
<glyph unicode="&#xe909;" horiz-adv-x="101" d="M76.991 201.766c-0.005 1.588-1.259 2.866-2.798 2.854l-47.934-0.392c-1.539-0.012-2.782-1.31-2.777-2.899l0.21-60.991c0.005-1.59 1.257-2.868 2.796-2.854l47.935 0.392c1.539 0.012 2.782 1.31 2.777 2.899l-0.21 60.991zM54.907 197.552c0.276 1.661 1.801 2.782 3.405 2.504 1.603-0.28 2.679-1.852 2.401-3.513s-1.803-2.782-3.406-2.504-2.677 1.85-2.399 3.513zM39.981 197.611c0.278 1.663 1.803 2.784 3.405 2.506s2.679-1.852 2.401-3.513-1.803-2.782-3.406-2.504-2.677 1.852-2.399 3.511zM48.003 152.769c-1.693-1.381-4.123-2.095-7.29-2.146-2.654-0.040-5.012 0.379-7.070 1.259l-0.042 4.552c0.951-0.481 1.999-0.869 3.139-1.163s2.268-0.432 3.384-0.414c1.707 0.026 2.962 0.344 3.772 0.958 0.808 0.612 1.207 1.581 1.194 2.908-0.010 1.189-0.486 2.021-1.427 2.504-0.943 0.483-2.439 0.708-4.489 0.677l-1.857-0.030-0.037 4.102 1.89 0.030c1.896 0.030 3.279 0.308 4.15 0.834 0.871 0.528 1.301 1.415 1.289 2.66-0.017 1.917-1.186 2.856-3.504 2.819-0.803-0.012-1.619-0.164-2.446-0.453-0.829-0.289-1.747-0.782-2.754-1.479l-2.425 3.649c2.216 1.696 4.866 2.567 7.955 2.614 2.532 0.038 4.536-0.463 6.012-1.5 1.476-1.039 2.223-2.504 2.24-4.396 0.014-1.581-0.435-2.932-1.35-4.053-0.916-1.123-2.209-1.903-3.877-2.343v-0.105c1.976-0.224 3.476-0.82 4.499-1.791s1.542-2.294 1.558-3.966c0.016-2.436-0.818-4.345-2.513-5.727zM60.88 151.28l-0.135 14.64 0.030 2.406 0.059 2.632c-0.85-0.902-1.441-1.493-1.775-1.775l-2.789-2.38-2.52 3.181 7.818 6.608 4.249 0.065 0.233-25.297-5.171-0.079z" />
<glyph unicode="&#xe90a;" horiz-adv-x="101" d="M100.721 355.672c0-27.813-22.547-50.361-50.361-50.361s-50.361 22.547-50.361 50.361c0 27.813 22.547 50.361 50.361 50.361s50.361-22.547 50.361-50.361z" />
<glyph unicode="&#xe90b;" horiz-adv-x="101" d="M74.6 389.027l-48.168 0.212c-1.478 0.007-2.681-1.236-2.684-2.775l-0.191-61.318c-0.005-1.541 1.189-2.794 2.667-2.801l48.17-0.21c1.478-0.007 2.679 1.235 2.684 2.775l0.191 61.318c0.003 1.539-1.191 2.793-2.668 2.8zM27.732 326.243l-0.052 5.856c-0.005 4.769 3.628 5.888 3.628 5.888l10.231 3.315 3.464 1.841-0.010 3.826c0 0-2.581 1.242-2.576 4.31-0.112 0.009-0.233 0.017-0.372 0.037-1.843 0.241-3.413 3.118-3.543 5.066-0.129 1.95 1.472 2.107 1.472 2.107l1.395-0.465c0 0-0.603 1.812-0.588 6.856 0.007 2.317 0.635 3.45 1.876 4.186 0 0.009-0.003 0.014-0.003 0.026 0 0-1.845 4.389 8.084 4.431 9.569-0.129 9.52-8.271 9.52-8.271l-0.040-2.988-0.297-3.915c0.103 0.037 1.352 0.047 1.478 0.047 1.117-0.005 1.021-2.21 1.021-2.21s-1.359-4.721-3.203-4.945c-0.161-0.023-0.296-0.031-0.423-0.038-0.341-2.515-2.91-4.2-2.91-4.2l-0.012-4.004 3.387-1.777 10.557-3.441c0 0 3.328-1.114 3.322-5.907-0.007-4.797 0.019-5.83 0.019-5.83l-45.424 0.199z" />
<glyph unicode="&#xe90c;" horiz-adv-x="101" d="M100.721 724.984c0-27.813-22.547-50.361-50.361-50.361s-50.361 22.547-50.361 50.361c0 27.813 22.547 50.361 50.361 50.361s50.361-22.547 50.361-50.361z" />
<glyph unicode="&#xe90d;" horiz-adv-x="101" d="M63.752 709.232c-0.010 4.527-3.207 5.566-3.207 5.566l-10.139 3.207-3.254 1.663v3.782c0 0 2.459 1.603 2.78 3.982 0.122 0.009 0.252 0.017 0.406 0.038 1.768 0.219 3.058 4.686 3.058 4.686s0.086 2.083-0.984 2.083c-0.121 0-1.32-0.017-1.418-0.051l0.273 3.7 0.031 2.824c0 0 0.021 7.692-9.159 7.774-9.525-0.082-7.741-4.219-7.741-4.219 0-0.010 0.003-0.017 0.003-0.024-1.187-0.699-1.785-1.771-1.785-3.962 0-4.765 0.584-6.475 0.584-6.475l-1.341 0.434c0 0-1.535-0.154-1.406-1.997 0.129-1.841 1.644-4.553 3.413-4.772 0.135-0.019 0.25-0.028 0.358-0.035 0.005-2.899 2.485-4.060 2.485-4.060l0.021-3.613-3.317-1.752-9.806-3.176c0 0-3.483-1.074-3.462-5.576l0.066-5.533h43.578c0-0.002-0.028 0.974-0.037 5.506zM41.819 694.767c13.484 0 21.97 8.955 21.97 8.955h-43.504c0 0 8.052-8.955 21.534-8.955zM84.606 734.384h-8.058v8.058c0 1.483-1.203 2.686-2.686 2.686s-2.684-1.203-2.684-2.686v-8.058h-8.058c-1.485 0-2.686-1.203-2.686-2.686 0-1.485 1.203-2.686 2.686-2.686h8.058v-8.058c0-1.483 1.203-2.686 2.684-2.686 1.485 0 2.686 1.203 2.686 2.686v8.058h8.058c1.483 0 2.686 1.201 2.686 2.686s-1.205 2.686-2.686 2.686z" />
<glyph unicode="&#xe90e;" horiz-adv-x="101" d="M100.721 540.328c0-27.813-22.547-50.361-50.361-50.361s-50.361 22.547-50.361 50.361c0 27.813 22.547 50.361 50.361 50.361s50.361-22.547 50.361-50.361z" />
<glyph unicode="&#xe90f;" horiz-adv-x="101" d="M80.577 522.282c-0.734 2.308-4.511 4.407-6.715 5.875-2.205 1.469-6.507 5.036-9.233 5.036-2.73 0-7.976-3.777-7.976-3.777s-5.561 4.197-10.072 8.813-7.134 8.393-7.134 8.393 3.987 7.030 3.777 8.813-3.252 6.19-5.036 8.813-3.882 6.295-6.715 6.295c-2.833 0-10.702-7.659-10.911-9.652s-0.14-5.456 3.357-13.010c3.497-7.554 21.613-26.544 28.959-31.056 7.343-4.511 12.588-7.344 17.207-6.715 4.616 0.63 11.226 9.862 10.492 12.17z" />
<glyph unicode="&#xe910;" horiz-adv-x="101" d="M100.721 909.639c0-27.813-22.547-50.361-50.361-50.361s-50.361 22.547-50.361 50.361c0 27.813 22.547 50.361 50.361 50.361s50.361-22.547 50.361-50.361z" />
<glyph unicode="&#xe911;" horiz-adv-x="101" d="M80.525 892.597c-0.014 6.227-4.44 7.652-4.44 7.652l-14.038 4.41-4.504 2.287v5.202c0 0 3.405 2.205 3.849 5.473 0.17 0.012 0.348 0.024 0.561 0.052 2.448 0.303 4.235 6.444 4.235 6.444s0.117 2.864-1.366 2.864c-0.168 0-1.827-0.023-1.962-0.070l0.379 5.089 0.042 3.88c0 0 0.028 10.579-12.683 10.693-13.188-0.114-10.719-5.802-10.719-5.802 0-0.014 0.005-0.024 0.005-0.035-1.644-0.962-2.474-2.436-2.474-5.447 0-6.552 0.81-8.902 0.81-8.902l-1.855 0.596c0 0-2.126-0.212-1.948-2.745 0.18-2.532 2.277-6.26 4.727-6.563 0.184-0.024 0.346-0.037 0.495-0.047 0.007-3.985 3.44-5.583 3.44-5.583l0.031-4.968-4.594-2.411-13.578-4.366c0 0-4.824-1.476-4.797-7.668l0.093-7.608h60.34c0-0.002-0.037 1.341-0.049 7.573zM20.338 885.020c0 0 11.148-12.312 29.816-12.312s30.421 12.312 30.421 12.312h-60.237z" />
<glyph unicode="&#xe912;" glyph-name="album" d="M757.903 786.935l-489.697 2.15c-15.032 0.061-27.259-12.575-27.3-28.201l-1.946-623.411c-0.041-15.647 12.083-28.385 27.116-28.467l489.718-2.13c15.012-0.082 27.238 12.554 27.3 28.221l1.946 623.391c0.041 15.626-12.124 28.365-27.136 28.447zM281.415 148.635l-0.532 59.515c-0.061 48.456 36.905 59.884 36.905 59.884l103.997 33.71 35.226 18.719-0.102 38.871c0 0-26.235 12.616-26.173 43.848-1.167 0.102-2.376 0.184-3.789 0.389-18.76 2.437-34.693 31.683-36.024 51.507-1.29 19.804 14.971 21.402 14.971 21.402l14.172-4.71c0 0-6.124 18.412-5.98 69.693 0.082 23.552 6.431 35.062 19.067 42.537 0 0.082-0.041 0.143-0.041 0.266 0 0-18.739 44.626 82.207 45.056 97.28-1.311 96.809-84.091 96.809-84.091l-0.43-30.372-3.011-39.813c1.044 0.369 13.742 0.492 14.991 0.492 11.387-0.041 10.404-22.467 10.404-22.467s-13.824-48.005-32.584-50.258c-1.618-0.225-3.011-0.307-4.321-0.41-3.461-25.559-29.553-42.721-29.553-42.721l-0.123-40.694 34.427-18.084 107.336-34.98c0 0 33.812-11.325 33.772-60.068-0.082-48.763 0.184-59.269 0.184-59.269l-461.804 2.048z" />
<glyph unicode="&#xe913;" glyph-name="prof" d="M819.159 197.714c0 0-0.369 13.66-0.492 77.025-0.123 63.283-45.117 77.804-45.117 77.804l-142.746 44.831-45.793 23.245v52.879c0 0 34.632 22.426 39.137 55.644 1.72 0.123 3.543 0.246 5.714 0.532 24.883 3.072 43.049 65.516 43.049 65.516s1.229 29.123-13.885 29.123c-1.72 0-18.575-0.246-19.948-0.717l3.85 51.732 0.43 39.465c0 0 0.287 107.54-128.922 108.708-134.062-1.147-108.974-58.982-108.974-58.982 0-0.143 0.041-0.246 0.041-0.369-16.712-9.789-25.149-24.74-25.149-55.378 0-66.621 8.212-90.501 8.212-90.501l-18.842 6.062c0 0-21.627-2.15-19.804-27.914 1.823-25.743 23.142-63.631 48.067-66.724 1.864-0.246 3.502-0.369 5.038-0.471 0.061-40.53 34.98-56.771 34.98-56.771l0.307-50.504-46.694-24.494-138.035-44.421c0 0-49.050-14.991-48.763-77.947l0.942-77.353h1.065c0 0 113.336-125.174 303.145-125.174 189.768 0 309.268 125.174 309.268 125.174h-0.082z" />
<glyph unicode="&#xe914;" glyph-name="rel" d="M649.052 286.556c-0.123 46.1-32.666 56.668-32.666 56.668l-103.24 32.707-33.157 16.916v38.523c0 0 25.047 16.323 28.303 40.55 1.249 0.082 2.56 0.164 4.137 0.389 18.002 2.253 31.15 47.718 31.15 47.718s0.86 21.217-10.035 21.217c-1.249 0-13.455-0.164-14.438-0.512l2.806 37.663 0.307 28.774c0 0 0.205 78.336-93.286 79.155-96.993-0.84-78.828-42.967-78.828-42.967 0-0.102 0.041-0.164 0.041-0.246-12.104-7.127-18.207-18.043-18.207-40.346 0-48.538 5.98-65.925 5.98-65.925l-13.66 4.403c0 0-15.647-1.556-14.316-20.337 1.311-18.76 16.753-46.346 34.755-48.599 1.372-0.184 2.56-0.266 3.645-0.348 0.061-29.512 25.313-41.349 25.313-41.349l0.225-36.823-33.792-17.818-99.86-32.358c0 0-35.471-10.936-35.267-56.75l0.676-56.34h443.781c0-0.020-0.287 9.871-0.369 56.033zM425.697 139.284c137.298 0 223.744 91.177 223.744 91.177h-443.044c0 0 82.002-91.177 219.3-91.177zM861.45 542.72h-82.104v82.063c0 15.114-12.247 27.341-27.32 27.341-15.094 0-27.341-12.247-27.341-27.341v-82.063h-82.084c-15.114 0-27.361-12.247-27.361-27.341s12.247-27.341 27.361-27.341h82.084v-82.084c0-15.073 12.247-27.341 27.341-27.341 15.073 0 27.32 12.268 27.32 27.341v82.084h82.104c15.053 0 27.341 12.247 27.341 27.341s-12.288 27.341-27.341 27.341z" />
<glyph unicode="&#xe915;" glyph-name="sos" d="M213.545 495.636c-15.299 4.608-22.958 11.264-22.958 20.050 0 5.857 1.679 9.728 5.018 11.592 3.338 1.884 8.131 2.826 14.397 2.826 0.963 0 1.987-0.020 3.031-0.102s2.314-0.102 3.85-0.102h7.086c3.072 0 5.98-0.164 8.765-0.43 2.785-0.287 6.533-0.922 11.264-1.905s11.018-2.458 18.862-4.485c7.864-2.007 18.555-4.772 32.031-8.253l22.958 63.918c-31.15 15.053-64.819 22.569-100.987 22.569-76.227 0-114.34-31.764-114.34-95.252 0-11.121 1.72-21.34 5.202-30.597 3.482-9.277 8.315-17.551 14.5-24.842 6.185-7.332 13.537-13.619 22.016-18.903 8.479-5.325 17.654-9.482 27.546-12.554 7.107-2.499 14.746-4.813 22.958-6.963 8.192-2.171 15.749-4.608 22.63-7.25 6.861-2.642 12.616-5.632 17.203-8.97s6.881-7.475 6.881-12.349c0-4.014-1.004-7.25-3.011-9.605-2.028-2.376-4.69-4.157-8.049-5.448-3.338-1.27-7.209-2.068-11.592-2.417-4.362-0.348-8.929-0.512-13.66-0.512-2.929 0-6.328 0.287-10.22 0.84s-8.008 1.229-12.308 2.048c-4.321 0.717-8.622 1.577-12.943 2.601-4.321 0.963-8.356 1.864-12.104 2.703l-31.314 7.721c-0.84-2.089-1.679-4.588-2.499-7.516-4.854-17.531-11.551-36.905-20.029-58.081 30.74-14.746 66.499-22.118 107.233-22.118 18.371 0 34.816 2.089 49.357 6.267 14.541 4.157 26.808 10.465 36.823 18.903 10.015 8.417 17.695 19.087 23.040 31.969s8.049 28.099 8.049 45.65c0 23.818-9.708 44.073-29.102 60.785-19.354 16.691-47.882 29.409-85.586 38.216zM625.992 557.445c-13.599 13.66-30.085 24.351-49.418 32.051-19.333 7.721-40.98 11.592-64.901 11.592-49.091 0-88.023-15.524-116.838-46.572-26.993-29.102-40.468-64.901-40.468-107.377 0-13.21 1.475-26.173 4.485-38.851 2.99-12.636 7.434-24.678 13.353-36.004 5.919-11.366 13.271-21.832 22.118-31.457s19.087-17.9 30.781-24.863 24.74-12.37 39.117-16.282c14.418-3.891 30.249-5.837 47.473-5.837 16.814 0 32.399 1.925 46.653 5.714 14.213 3.85 27.156 9.196 38.81 16.097 11.592 6.881 21.852 15.114 30.761 24.637s16.404 20.009 22.446 31.355c6.062 11.325 10.629 23.429 13.66 36.209 3.052 12.841 4.588 25.928 4.588 39.26 0 22.139-3.686 42.639-11.039 61.522-7.414 18.903-17.94 35.164-31.58 48.804zM569.59 421.069c-2.273-9.032-5.898-17.244-10.834-24.535-4.936-7.332-11.264-13.312-18.985-17.961-7.741-4.669-17.080-7.004-28.078-7.004-9.441 0-18.002 1.946-25.641 5.857-7.66 3.871-14.172 9.196-19.538 15.954-5.345 6.738-9.441 14.746-12.308 24.023-2.847 9.236-4.28 19.313-4.28 30.167 0 9.216 1.147 18.432 3.441 27.709 2.273 9.257 5.919 17.613 10.834 25.068 4.936 7.434 11.305 13.537 19.108 18.268s17.244 7.25 28.365 7.516c9.339-0.41 17.756-2.642 25.334-6.697 7.619-4.035 14.090-9.503 19.415-16.384 5.366-6.881 9.441-15.053 12.329-24.433 2.847-9.38 4.26-19.743 4.26-31.048 0-8.622-1.126-17.49-3.42-26.501zM893.194 457.4c-19.415 16.712-47.985 29.45-85.647 38.236-15.319 4.608-22.979 11.264-22.979 20.050 0 5.857 1.679 9.728 5.018 11.592 3.318 1.884 8.131 2.826 14.397 2.826 0.942 0 1.987-0.020 3.031-0.102s2.314-0.102 3.85-0.102h7.086c3.052 0 6.001-0.164 8.765-0.43 2.785-0.287 6.533-0.922 11.264-1.905 4.731-0.963 10.998-2.458 18.862-4.485 7.905-2.007 18.575-4.772 32.031-8.253l22.979 63.918c-31.171 15.053-64.84 22.569-100.987 22.569-76.268 0-114.36-31.764-114.36-95.252 0-11.121 1.761-21.34 5.222-30.597 3.502-9.277 8.315-17.551 14.5-24.842 6.205-7.332 13.537-13.619 22.016-18.903 8.479-5.325 17.674-9.482 27.546-12.554 7.107-2.499 14.746-4.813 22.917-6.963 8.212-2.171 15.79-4.608 22.671-7.25s12.616-5.632 17.203-8.97c4.608-3.338 6.881-7.475 6.881-12.349 0-4.014-1.004-7.25-3.011-9.605-2.028-2.376-4.69-4.157-8.028-5.448-3.359-1.27-7.209-2.068-11.571-2.417-4.383-0.348-8.95-0.512-13.681-0.512-2.949 0-6.349 0.287-10.24 0.84-3.871 0.553-7.987 1.229-12.308 2.048-4.301 0.717-8.622 1.577-12.923 2.601-4.321 0.963-8.335 1.864-12.104 2.703l-31.314 7.721c-0.819-2.089-1.659-4.588-2.499-7.516-4.833-17.531-11.53-36.905-20.050-58.081 30.74-14.746 66.519-22.118 107.254-22.118 18.371 0 34.796 2.089 49.316 6.267 14.582 4.157 26.849 10.465 36.844 18.903 10.015 8.417 17.715 19.087 23.081 31.969s8.028 28.099 8.028 45.65c0.041 23.798-9.626 44.052-29.061 60.764z" />
</font>
</defs>
</svg>
